<?xml version="1.0" encoding="utf-8"?>
<!-- Generator: Adobe Illustrator 18.1.1, SVG Export Plug-In . SVG Version: 6.00 Build 0)  -->
<svg version="1.1" id="レイヤー_1" xmlns="http://www.w3.org/2000/svg" xmlns:xlink="http://www.w3.org/1999/xlink" x="0px"
	 y="0px" width="15.9px" height="9.9px" viewBox="0 0 15.9 9.9" enable-background="new 0 0 15.9 9.9" xml:space="preserve">
<path fill="#B0B0B0" d="M9.8,0.1C9.7,0,9.7,0,9.6,0c0,0-0.1,0-0.1,0C9.3,0.1,9.3,0.2,9.3,0.3V3H7.9C3.5,3,0.5,5.1,0,9.2
	c0,0.2,0.1,0.4,0.3,0.4c0.1,0,0.2,0,0.3-0.1c0.8-1.1,2.5-2.5,5.7-2.5h3v2.6c0,0.1,0.1,0.2,0.2,0.3c0,0,0.1,0,0.1,0
	c0.1,0,0.1,0,0.2-0.1L15.9,5L9.8,0.1z"/>
</svg>
