<?xml version="1.0" encoding="utf-8"?>
<!-- Generator: Adobe Illustrator 18.1.1, SVG Export Plug-In . SVG Version: 6.00 Build 0)  -->
<svg version="1.1" id="レイヤー_1" xmlns="http://www.w3.org/2000/svg" xmlns:xlink="http://www.w3.org/1999/xlink" x="0px"
	 y="0px" width="16.4px" height="23.3px" viewBox="0 0 16.4 23.3" enable-background="new 0 0 16.4 23.3" xml:space="preserve">
<g>
	<g>
		<path fill="#B0B0B0" d="M16.2,5.2l-5.1-5C11,0.1,10.9,0,10.7,0H1.6C0.7,0,0,0.7,0,1.6v17.1c0,0.9,0.7,1.6,1.6,1.6h3.5l-0.9-1.2
			H1.8c-0.3,0-0.5-0.2-0.5-0.5V1.8c0-0.3,0.2-0.5,0.5-0.5h8.7v3.3c0,0.6,0.6,1.2,1.2,1.2h3.4l0,0v12.7c0,0.3-0.2,0.5-0.5,0.5h-2.3
			l-0.8,1.2h3.4c0.9,0,1.6-0.7,1.6-1.6V5.6C16.4,5.4,16.3,5.3,16.2,5.2z"/>
		<polygon fill="#B0B0B0" stroke="#FFFFFF" stroke-width="0.5" stroke-miterlimit="10" points="10.7,16 10.7,10.7 5.9,10.7 5.9,16 
			3.5,16 8.3,22.8 13.1,16 		"/>
	</g>
</g>
</svg>
