<?xml version="1.0" encoding="utf-8"?>
<!-- Generator: Adobe Illustrator 18.1.1, SVG Export Plug-In . SVG Version: 6.00 Build 0)  -->
<svg version="1.1" id="レイヤー_1" xmlns="http://www.w3.org/2000/svg" xmlns:xlink="http://www.w3.org/1999/xlink" x="0px"
	 y="0px" width="200px" height="26px" viewBox="0 0 200 26" enable-background="new 0 0 200 26" xml:space="preserve">
<g id="XMLID_5_">
	<path id="XMLID_16_" fill-rule="evenodd" clip-rule="evenodd" fill="#FFFFFF" d="M122.2,25.3c-3.3,0-6.1-2.7-6.1-6.1h0
		c0-5.4,0-14.1,0-14.1h6.1v14c0,0.6,0.5,1.2,1.2,1.2h11.4c0.6,0,1.2-0.5,1.2-1.2v-14h6.1c0,0,0,8.7,0,14.1h0c0,3.3-2.7,6.1-6.1,6.1
		H122.2z"/>
	<path id="XMLID_15_" fill-rule="evenodd" clip-rule="evenodd" fill="#FFFFFF" d="M67.2,25.3c-3.3,0-6.1-2.7-6.1-6.1h0
		c0-5.4,0-14.1,0-14.1h6.1v14c0,0.6,0.5,1.2,1.2,1.2h11.4c0.6,0,1.2-0.5,1.2-1.2v-14l6.1,0c0,0,0,8.7,0,14.1h0
		c0,3.3-2.7,6.1-6.1,6.1H67.2z"/>
	<g>
		<path fill="#FFFFFF" d="M164.7,5.2l-20.8,0l0,20.1l20.8,0v0c3.3,0,6.1-2.7,6.1-6.1v-8C170.8,7.9,168,5.2,164.7,5.2z M164.6,19.1
			c0,0.6-0.5,1.2-1.2,1.2c-3.7,0-11.9,0-13.4,0V10.2l13.4,0c0.6,0,1.2,0.5,1.2,1.2V19.1z"/>
	</g>
	<g>
		<polygon id="XMLID_12_" fill="#FFFFFF" points="103.6,15.2 115.2,5.2 106.9,5.2 97.6,13.2 95.2,13.2 95.2,5.2 89.1,5.2 89.1,25.3 
			95.2,25.3 95.2,17.2 97.8,17.2 107.9,25.3 116.2,25.3 		"/>
	</g>
	<path fill-rule="evenodd" clip-rule="evenodd" fill="#FFFFFF" d="M193,25.3h7L188.5,5.1H181l-11.5,20.2h7l2.3-4.1h11.8L193,25.3z
		 M181.1,17.2l3.6-6.4l3.6,6.4H181.1z"/>
	<polygon id="XMLID_9_" fill-rule="evenodd" clip-rule="evenodd" fill="#FFFFFF" points="43.8,17.2 59,17.2 59,13.2 43.8,13.2 
		43.8,9.7 59,9.7 59,5.2 37.7,5.2 37.7,25.3 43.8,25.3 43.8,17.2 	"/>
	<polygon id="XMLID_8_" fill-rule="evenodd" clip-rule="evenodd" fill="#FFFFFF" points="26.8,13.6 13,13.6 20.1,25.3 26.8,13.6 	
		"/>
	<polygon id="XMLID_7_" fill-rule="evenodd" clip-rule="evenodd" fill="#FFFFFF" points="31.6,5.2 7.8,5.2 11.7,11.5 28,11.5 
		31.6,5.2 	"/>
	<path id="XMLID_6_" fill-rule="evenodd" clip-rule="evenodd" fill="#FFFFFF" d="M15.2,25.3H18l-7.2-11.7H13l-1.3-2.1H9.5L4.4,3
		L33,3c0,0,0.9-1.7,1.2-2.3L0,0.7L15.2,25.3L15.2,25.3z"/>
</g>
</svg>
