<?xml version="1.0" encoding="utf-8"?>
<!-- Generator: Adobe Illustrator 18.1.1, SVG Export Plug-In . SVG Version: 6.00 Build 0)  -->
<svg version="1.1" id="レイヤー_1" xmlns="http://www.w3.org/2000/svg" xmlns:xlink="http://www.w3.org/1999/xlink" x="0px"
	 y="0px" width="176px" height="22px" viewBox="0 0 176 22" enable-background="new 0 0 176 22" xml:space="preserve">
<g id="XMLID_15_">
	<path id="XMLID_86_" fill-rule="evenodd" clip-rule="evenodd" fill="#0074BA" d="M107.4,21.8c-2.9,0-5.3-2.4-5.3-5.3h0
		c0-4.7,0-12.3,0-12.3l5.3,0v12.3c0,0.6,0.5,1,1,1l10,0c0.6,0,1-0.5,1-1V4.1h5.3c0,0,0,7.6,0,12.3h0c0,2.9-2.4,5.3-5.3,5.3
		L107.4,21.8z"/>
	<path id="XMLID_85_" fill-rule="evenodd" clip-rule="evenodd" fill="#0074BA" d="M59.3,21.8c-2.9,0-5.3-2.4-5.3-5.3h0
		c0-4.7,0-12.3,0-12.3l5.3,0l0,12.3c0,0.6,0.5,1,1,1h10c0.6,0,1-0.5,1-1V4.1h5.3c0,0,0,7.6,0,12.3h0c0,2.9-2.4,5.3-5.3,5.3H59.3z"/>
	<g>
		<path fill="#0074BA" d="M144.6,4.1l-18.2,0l0,17.6l18.2,0v0c2.9,0,5.3-2.4,5.3-5.3v-7C150,6.5,147.6,4.1,144.6,4.1z M144.5,16.4
			c0,0.6-0.5,1-1,1c-3.2,0-10.4,0-11.8,0V8.5h11.8c0.6,0,1,0.5,1,1V16.4z"/>
	</g>
	<g>
		<polygon id="XMLID_82_" fill="#0074BA" points="91.2,13 101.3,4.1 94,4.1 85.9,11.2 83.8,11.2 83.8,4.1 78.5,4.1 78.5,21.8 
			83.8,21.8 83.8,14.7 86.1,14.7 94.9,21.8 102.2,21.8 		"/>
	</g>
	<path fill-rule="evenodd" clip-rule="evenodd" fill="#0074BA" d="M169.4,21.8h6.2L165.5,4.1h-6.6l-10.1,17.7h6.2l2-3.5h10.4
		L169.4,21.8z M159,14.7l3.2-5.6l3.2,5.6H159z"/>
	<polygon id="XMLID_79_" fill-rule="evenodd" clip-rule="evenodd" fill="#0074BA" points="38.8,14.7 52.1,14.7 52.1,11.2 38.8,11.2 
		38.8,8.2 52.1,8.2 52.1,4.1 33.5,4.1 33.5,21.8 38.8,21.8 38.8,14.7 	"/>
	<polygon id="XMLID_78_" fill-rule="evenodd" clip-rule="evenodd" fill="#0074BA" points="23.9,11.5 11.8,11.5 18.1,21.7 23.9,11.5 
			"/>
	<polygon id="XMLID_77_" fill-rule="evenodd" clip-rule="evenodd" fill="#0074BA" points="28.1,4.1 7.3,4.1 10.6,9.6 25,9.6 
		28.1,4.1 	"/>
	<path id="XMLID_76_" fill-rule="evenodd" clip-rule="evenodd" fill="#0074BA" d="M13.7,21.8h2.5L9.9,11.5h1.9l-1.1-1.9H8.8L4.3,2.2
		l25.1,0c0,0,0.8-1.5,1-2l-29.9,0L13.7,21.8L13.7,21.8z"/>
</g>
</svg>
